<?xml version="1.0" standalone="no"?>
<!DOCTYPE svg PUBLIC "-//W3C//DTD SVG 1.1//EN" "http://www.w3.org/Graphics/SVG/1.1/DTD/svg11.dtd" >
<svg xmlns="http://www.w3.org/2000/svg">
<metadata>
Created by FontForge 20120731 at Thu Jun 23 16:15:30 2016
 By admin
</metadata>
<defs>
<font id="iconfont" horiz-adv-x="1024" >
  <font-face 
    font-family="iconfont"
    font-weight="500"
    font-stretch="normal"
    units-per-em="1024"
    panose-1="2 0 6 3 0 0 0 0 0 0"
    ascent="896"
    descent="-128"
    x-height="792"
    bbox="0 -128 1344 896"
    underline-thickness="50"
    underline-position="-100"
    unicode-range="U+0078-E625"
  />
<missing-glyph horiz-adv-x="374" 
d="M34 0v682h272v-682h-272zM68 34h204v614h-204v-614z" />
    <glyph glyph-name=".notdef" horiz-adv-x="374" 
d="M34 0v682h272v-682h-272zM68 34h204v614h-204v-614z" />
    <glyph glyph-name=".null" horiz-adv-x="0" 
 />
    <glyph glyph-name="nonmarkingreturn" horiz-adv-x="341" 
 />
    <glyph glyph-name="x" unicode="x" horiz-adv-x="1001" 
d="M281 543q-27 -1 -53 -1h-83q-18 0 -36.5 -6t-32.5 -18.5t-23 -32t-9 -45.5v-76h912v41q0 16 -0.5 30t-0.5 18q0 13 -5 29t-17 29.5t-31.5 22.5t-49.5 9h-133v-97h-438v97zM955 310v-52q0 -23 0.5 -52t0.5 -58t-10.5 -47.5t-26 -30t-33 -16t-31.5 -4.5q-14 -1 -29.5 -0.5
t-29.5 0.5h-32l-45 128h-439l-44 -128h-29h-34q-20 0 -45 1q-25 0 -41 9.5t-25.5 23t-13.5 29.5t-4 30v167h911zM163 247q-12 0 -21 -8.5t-9 -21.5t9 -21.5t21 -8.5q13 0 22 8.5t9 21.5t-9 21.5t-22 8.5zM316 123q-8 -26 -14 -48q-5 -19 -10.5 -37t-7.5 -25t-3 -15t1 -14.5
t9.5 -10.5t21.5 -4h37h67h81h80h64h36q23 0 34 12t2 38q-5 13 -9.5 30.5t-9.5 34.5q-5 19 -11 39h-368zM336 498v228q0 11 2.5 23t10 21.5t20.5 15.5t34 6h188q31 0 51.5 -14.5t20.5 -52.5v-227h-327z" />
    <glyph glyph-name="uniE600" unicode="&#xe600;" horiz-adv-x="1756" 
d="M1094 433l-340 340q-7 7 -18.5 7t-19 -7.5t-7.5 -18.5t8 -19l321 -321l-321 -321q-8 -8 -8 -19t7.5 -19t19 -8t18.5 8l340 340q8 8 8 19t-8 19v0z" />
    <glyph glyph-name="uniE601" unicode="&#xe601;" horiz-adv-x="1756" 
d="M1272 414v-367h-733v734h366v52h-390q-12 -1 -20.5 -8t-8.5 -17v-784q0 -12 7.5 -20.5t17.5 -8.5h784q12 0 20.5 7.5t9.5 17.5v394h-53zM1272 623q3 3 13.5 13t14.5 14q18 19 18.5 41.5t-17.5 40.5l-79 79q-13 13 -30.5 16.5t-33.5 -4.5q-7 -3 -16 -12t-17.5 -19.5
t-9.5 -10.5q26 -27 78 -79zM1203 588l-120 120q-9 8 -20 8.5t-18 -6.5l-349 -349v-129q1 -12 8 -19.5t17 -8.5h132l348 348q16 19 2 36zM831 254h-84v87l317 315l84 -85z" />
    <glyph glyph-name="uniE602" unicode="&#xe602;" horiz-adv-x="1756" 
d="M937 414l288 287q6 7 6 16.5t-6.5 16t-16 6.5t-15.5 -7l-288 -287l-287 287q-7 7 -16 7t-15.5 -6.5t-6.5 -16t6 -16.5l288 -287l-288 -288q-6 -6 -6 -15.5t6.5 -16t15.5 -6.5t16 7l287 287l288 -287q6 -7 15.5 -7t16 6.5t6.5 16t-6 15.5z" />
    <glyph glyph-name="uniE603" unicode="&#xe603;" horiz-adv-x="1756" 
d="M1288 644q-2 3 -22 14l-339 197q-10 6 -18 8q-1 3 -7.5 1.5t-9 -1.5t-9.5 -3.5t-10 -4.5t-10 -5.5t-9.5 -6t-8.5 -5.5t-7 -5l-298 -181q-17 -11 -18 -12q-4 -2 -7 -6t-3 -8q-3 -8 -3 -26v-380q0 -18 1 -21q0 -4 2 -7q4 -5 27 -19l320 -186q29 -17 39 -20h2q9 -2 14 2
q10 3 34 19l320 195q2 1 6.5 3.5t6.5 4t5.5 4t5 4t3 3.5t2 4.5t0.5 5.5v23v365v6v6v6v5q0 2 -0.5 5t-1 5t-1.5 4.5t-2.5 4t-3.5 2.5zM895 819l6 3q3 -1 5 -3l330 -191q-1 0 -1 -1l-333 -202q-1 1 -3 2l-332 192zM560 209q-1 0 -4.5 2.5t-5.5 3.5l1 366l328 -190q1 -1 4 -3
v-16v-350q-3 1 -5 2zM924 22v350v17q3 2 11 6l320 195l1 1v-3v-353v-5v-5q-2 -1 -4.5 -3t-3.5 -2z" />
    <glyph glyph-name="uniE604" unicode="&#xe604;" horiz-adv-x="1756" 
d="M928 490h-45h-5q-13 0 -18.5 -1t-10.5 -5.5t-5 -13.5t5 -13.5t10.5 -5t18.5 -0.5h5h45h5q12 0 18 0.5t11 5t5 13.5t-5 13.5t-11 5.5t-18 1h-5zM734 490h-45h-5q-12 0 -17.5 -1t-11 -5.5t-5.5 -13.5t5.5 -13.5t11 -5t17.5 -0.5h5h45h6q12 0 17.5 0.5t10.5 5t5 13.5
t-5 13.5t-10.5 5.5t-17.5 1h-6zM1293 218v443v21q0 14 -8.5 24.5t-22.5 13.5v-1q-5 1 -13 1h-14h-2h-655h-1h-18q-6 0 -10 -1v1q-13 -3 -21.5 -13t-9.5 -23v-1v-465q0 -15 9.5 -25.5t23.5 -12.5h2h178h5h6l5 -5l5 -5l86 -85q16 -16 21 -19q2 -1 3.5 -1.5t3.5 -1t4 0t3.5 1
t3.5 2.5t3.5 2.5t3.5 2.5l4 4q1 1 3.5 4t4.5 4l86 86l4 4q4 4 5 6h5h6h242h15q13 1 22.5 10.5t11.5 22.5v5zM1254 255q0 -31 -23 -37h-229q-23 0 -27 -2q-6 -2 -21 -18l-86 -86l-1 -1q-1 1 -1 2l-86 85q-15 15 -20 17q-5 3 -29 3h-135q-39 0 -39 39v-39v428q0 28 18 36h3
h655h3q18 -8 18 -35v35v-427zM1122 490h-46h-5q-12 0 -17.5 -1t-10.5 -5.5t-5 -13.5t5 -13.5t10.5 -5t17.5 -0.5h5h46h5q12 0 17.5 0.5t11 5t5.5 13.5t-5.5 13.5t-11 5.5t-17.5 1h-5z" />
    <glyph glyph-name="uniE605" unicode="&#xe605;" horiz-adv-x="1756" 
d="M1264 81l-189 189q77 87 77 203q0 126 -89.5 215.5t-216 89.5t-216 -89.5t-89.5 -216t89.5 -216t216.5 -89.5q115 0 202 77l189 -189q5 -5 13 -5t13.5 5t5.5 13t-6 13zM847 214q-107 0 -183 75.5t-76 183t76 183t183 75.5t182.5 -75.5t75.5 -183t-75.5 -183t-182.5 -75.5
z" />
    <glyph glyph-name="uniE606" unicode="&#xe606;" horiz-adv-x="1756" 
d="M965 256l-238 -1h-5q-12 1 -18 0t-11 -5t-5 -13q0 -13 8 -16t26 -3h5l238 1h5q13 -1 18.5 0t11 5t5.5 13q0 13 -8 16t-27 3h-5zM1083 554l-356 -1h-5q-12 0 -18 -0.5t-11 -4.5t-5 -13q0 -13 8 -16t26 -3h5h356h6q12 0 17.5 0.5t11 5t5.5 13.5q0 13 -8 16t-26 3h-6z
M965 405l-238 -1h-5q-12 0 -18 -0.5t-11 -4.5t-5 -13q0 -13 8 -16t26 -3h5h238h5q13 0 18.5 1t11 5t5.5 13q0 13 -8 16t-27 3h-5zM590 107v-37h40q-40 0 -40 37zM1260 69v672v5q-2 11 -10 19.5t-20 11.5h-6h-5h-176v5q0 11 -0.5 16.5t-5 10.5t-13.5 5q-13 0 -16 -7.5
t-3 -24.5v-5h-80v5q0 11 -0.5 16.5t-5 10.5t-13.5 5q-13 0 -16 -7.5t-3 -24.5v-5h-80v5q0 11 -1 16.5t-5 10.5t-13 5q-13 0 -16 -7.5t-3 -24.5v-5h-182h-3q-13 -2 -22 -10.5t-12 -19.5v-1v-5l1 -653v-19q0 -14 9 -24t22 -13h5h635q14 0 24.5 8t13.5 21v4v4zM1221 70h-2
l-629 -1v670v-37q0 34 32 37h147v-18v-5q0 -12 0.5 -17t5 -10t13.5 -5q13 0 16 7.5t3 24.5v5v18h80l1 -18q0 -2 -1 -5q0 -12 1 -17t5 -10t13 -5q13 0 16 7.5t3 24.5v5v19h81v-19v-5q0 -12 0.5 -17t5 -10t13.5 -5q12 0 15.5 7.5t2.5 24.5v5v19h141q33 -1 36 -30l1 -605
q-1 -35 -39 -35h39z" />
    <glyph glyph-name="uniE607" unicode="&#xe607;" horiz-adv-x="1756" 
d="M1308 530l-13 14l-164 163q-7 8 -17 6h-415q-9 0 -15 -7q-1 -1 -1 -2l-175 -174q-21 -22 -4 -47l383 -383q21 -14 41 -1l381 381q10 11 9.5 25.5t-10.5 24.5zM932 157q-25 -23 -51 2l-345 345l171 171h402l170 -171zM1003 523h-190q-8 0 -13.5 -5.5t-5.5 -13.5t5.5 -13.5
t13.5 -5.5h190q8 0 13.5 5.5t5.5 13.5t-5.5 13.5t-13.5 5.5zM563 477q-27 27 0 54l-27 -27zM1253 531q27 -26 0 -53l27 27z" />
    <glyph glyph-name="uniE608" unicode="&#xe608;" horiz-adv-x="1756" 
d="M1224 650h-637q-9 0 -15 6t-6 14.5t6 14.5t15 6h637q8 0 14 -6t6 -14.5t-6 -14.5t-14 -6v0zM1018 732h-226q-8 0 -14 6t-6 15t6 15t14 6h226q9 0 15 -6t6 -15t-6 -15t-15 -6v0zM813 198v349q0 9 6 15t14.5 6t14.5 -6t6 -15v-349q0 -8 -6 -14.5t-14.5 -6.5t-14.5 6.5
t-6 14.5v0zM957 198v349q0 9 6 15t14.5 6t14.5 -6t6 -15v-349q0 -8 -6 -14.5t-14.5 -6.5t-14.5 6.5t-6 14.5v0zM669 589q9 0 15 -6t6 -15v-432q0 -17 12 -29t29 -12h349q17 0 29 12t12 29v329v79v24q0 9 6 15t14.5 6t14.5 -6t6 -15v-452q0 -26 -18 -44t-43 -18h-391
q-25 0 -43 18t-18 44v452q0 9 6 15t14 6v0z" />
    <glyph glyph-name="uniE609" unicode="&#xe609;" 
d="M823 400h-583l250 251q12 11 0.5 22.5t-23.5 0.5l-278 -278v-1q-1 0 -1 -1l-1 -1l-1 -1v-1l-1 -1v-1v-1q0 -1 -1 -1v-1v0v-4v0q0 -1 0.5 -1t0.5 -1v-1v-1l1 -1v-1l1 -1l1 -1q0 -1 1 -1v-1l278 -278q12 -11 23.5 0.5t-0.5 22.5l-250 251h583q7 0 12 4.5t5 11.5t-5 11.5
t-12 4.5z" />
    <glyph glyph-name="uniE60A" unicode="&#xe60a;" 
d="M512 205l-319 358h638z" />
    <glyph glyph-name="uniE60B" unicode="&#xe60b;" horiz-adv-x="1756" 
d="M905 593l320 -359h-639z" />
    <glyph glyph-name="uniE60C" unicode="&#xe60c;" 
d="M693 549q15 0 35 -2q-23 109 -127.5 181.5t-238.5 72.5q-98 0 -181 -40.5t-132 -111.5t-49 -156q0 -143 145 -245l-36 -109l127 64q6 -2 25 -5.5t27 -5t22.5 -4t26.5 -3t25 -0.5q16 0 34 1q-11 38 -11 76q0 119 89.5 203t218.5 84zM498 647q21 0 33.5 -12.5t12.5 -33
t-12.5 -33t-33.5 -12.5t-37.5 13t-16.5 32.5t16.5 32.5t37.5 13zM245 556q-22 0 -38.5 13t-16.5 32.5t16.5 32.5t38.5 13q20 0 32.5 -12.5t12.5 -33t-12.5 -33t-32.5 -12.5zM1024 266q0 71 -43 132t-113.5 96t-151.5 35q-129 0 -218.5 -77t-89.5 -186t89.5 -186t218.5 -77
q37 0 109 18l99 -54l-27 90q127 96 127 209zM616 312q-13 0 -24.5 11t-11.5 24.5t11.5 25t24.5 11.5q20 0 33 -11t13 -25.5t-13 -25t-33 -10.5zM815 312q-13 0 -24.5 11t-11.5 24.5t11.5 25t24.5 11.5q20 0 33 -11t13 -25.5t-13 -25t-33 -10.5z" />
    <glyph glyph-name="uniE60D" unicode="&#xe60d;" 
d="M168 303q0 84 107 92q38 3 89 -14.5t82 -36.5l31 -19q-3 -5 -9.5 -13t-26.5 -28.5t-41 -36t-51 -28.5t-59 -13q-36 0 -61.5 9.5t-38 24.5t-17.5 30.5t-5 32.5zM400 754v-97h-174v-42l174 1v-64h-140v-34h289q-4 -28 -15 -61l-22 -64q-15 6 -39.5 15t-80 24t-87.5 15
q-39 0 -73.5 -11.5t-61.5 -41.5t-31 -75q-6 -67 24 -108t85 -57q88 -24 187 31q25 14 52.5 39.5t42.5 43t15 18.5l287 -158q18 31 31 59l23 62l-300 115q19 31 38 93q9 27 14.5 50.5t6.5 33.5l2 11l-155 1v60l187 2v42h-187v97h-92z" />
    <glyph glyph-name="uniE60E" unicode="&#xe60e;" 
d="M675.5 566q-7.5 0 -13 -5.5t-5.5 -12.5q0 -9 7 -14q-5 -59 -48.5 -99t-102.5 -40q-60 0 -103.5 40.5t-48.5 99.5q6 5 6 12.5t-5.5 13t-13.5 5.5q-7 0 -12 -5t-6 -12v-1q0 -76 53.5 -129t128.5 -53t128 52.5t54 127.5v2q0 7 -5.5 12.5t-13 5.5zM804 747h-584
q-12 0 -22 -7.5t-13 -19.5v-645v-19q0 -13 7.5 -22.5t19.5 -12.5h600q12 3 19.5 12.5t7.5 22.5v19v645q-3 12 -13 19.5t-22 7.5zM803 93q0 -16 -7.5 -26t-29.5 -10h-509q-36 0 -36 36v582q0 36 36 36h510q36 0 36 -36v36v-618z" />
    <glyph glyph-name="uniE60F" unicode="&#xe60f;" 
d="M306 590h412l-412 -412v412z" />
    <glyph glyph-name="uniE610" unicode="&#xe610;" 
d="M512 851q-96 0 -182.5 -37t-149.5 -100t-100 -149.5t-37 -182t37 -182.5t100 -149.5t149.5 -100t182 -37.5t182.5 37.5t149.5 100t100 149.5t37.5 182.5t-37.5 182t-100 149.5t-149.5 100t-182 37zM512 -34q-113 0 -209 56t-151.5 151.5t-55.5 208.5t55.5 209
t151.5 151.5t209 55.5t208.5 -55.5t151.5 -151.5t56 -209t-56 -208.5t-151.5 -151.5t-208.5 -56zM512 -34z" />
    <glyph glyph-name="uniE611" unicode="&#xe611;" 
d="M197 382q0 -130 92 -222.5t222.5 -92.5t223 92.5t92.5 223t-92.5 222.5t-223 92t-222.5 -92t-92 -223zM512 851q-96 0 -182.5 -37t-149.5 -100t-100 -149.5t-37 -182t37 -182.5t100 -149.5t149.5 -100t182 -37.5t182.5 37.5t149.5 100t100 149.5t37.5 182.5t-37.5 182
t-100 149.5t-149.5 100t-182 37zM512 -34q-113 0 -209 56t-151.5 151.5t-55.5 208.5t55.5 209t151.5 151.5t209 55.5t208.5 -55.5t151.5 -151.5t56 -209t-56 -208.5t-151.5 -151.5t-208.5 -56zM512 -34z" />
    <glyph glyph-name="uniE612" unicode="&#xe612;" 
d="M896 316h-368v368h-32v-368h-368v-32h368v-368h32v368h368v32z" />
    <glyph glyph-name="uniE613" unicode="&#xe613;" 
d="M128 316h768v-32h-768v32z" />
    <glyph glyph-name="uniE614" unicode="&#xe614;" 
d="M287 299q-13 0 -22.5 9.5t-9.5 22.5q0 14 9.5 23t22.5 9t22.5 -9t9.5 -23q0 -13 -9.5 -22.5t-22.5 -9.5zM480 299q-13 0 -22.5 9.5t-9.5 22.5q0 14 9.5 23t22.5 9t22.5 -9t9.5 -23q0 -13 -9.5 -22.5t-22.5 -9.5zM673 299q-13 0 -22.5 9.5t-9.5 22.5q0 14 9.5 23t22.5 9
t22.5 -9t9.5 -23q0 -13 -9.5 -22.5t-22.5 -9.5z" />
    <glyph glyph-name="uniE615" unicode="&#xe615;" horiz-adv-x="1756" 
d="M783.5 195q-15.5 0 -26.5 -11t-11 -26.5t11 -26.5t26.5 -11t26.5 11t11 26.5t-11 26.5t-26.5 11zM1047.5 195q-15.5 0 -26.5 -11t-11 -26.5t11 -26.5t26.5 -11t26.5 11t11 26.5t-11 26.5t-26.5 11zM1085 252h-307q-6 0 -11 5t-5 11l-33 226l-18 105q-2 21 -18 35t-37 14
h-24q-7 0 -13 -5.5t-6 -13t6 -13t13 -5.5h24q7 0 12 -5t6 -12l18 -105l32 -226q3 -20 18.5 -34.5t35.5 -14.5h307q8 0 13.5 5.5t5.5 13.5t-6 13.5t-13 5.5zM1128 575q-15 17 -38 17h-326q-8 0 -13.5 -6t-5.5 -13.5t5.5 -13t13.5 -5.5h327q5 0 9 -5q6 -7 4 -17l-29 -170
q-1 -7 -6.5 -11.5t-11.5 -4.5l-256 -19q-8 0 -13 -6t-5 -14q1 -7 6.5 -12t12.5 -5h1l255 19q20 0 36 14t18 34l30 170q3 28 -14 48zM878 -70q-92 0 -177 36q-81 34 -144 97t-97 144q-36 84 -36 177q0 92 36 176q34 82 97 145t144 97q84 36 177 36q92 0 176 -36
q82 -34 145 -97t97 -145q36 -83 36 -176q0 -92 -36 -177q-34 -81 -97 -144t-145 -97q-84 -36 -176 -36zM877.5 798q-112.5 0 -207.5 -55.5t-150.5 -151t-55.5 -207.5t55.5 -207.5t150.5 -151t207.5 -55.5t208 55.5t151 151t55.5 207.5t-55.5 207.5t-151 151t-208 55.5z" />
    <glyph glyph-name="uniE616" unicode="&#xe616;" horiz-adv-x="1756" 
d="M532 -74q-49 0 -84.5 35.5t-35.5 85.5v630q0 50 35.5 85.5t84.5 35.5h217q8 0 14 -6t6 -14t-6 -14t-14 -6h-217q-33 0 -56.5 -24t-23.5 -57v-629q0 -34 23.5 -58t56.5 -24h663q34 0 57.5 24t23.5 58v299q0 8 5.5 14t14 6t14.5 -6t6 -14v-299q0 -51 -35.5 -86.5
t-85.5 -35.5h-663zM652 130h-4q-8 2 -12.5 9t-3.5 15v2l2 6l2 10q2 6 4 13.5t4.5 16t6 19.5t7.5 22q36 104 94 192q81 124 192 200q133 90 303 107l-124 62q-8 4 -10.5 11.5t1.5 15.5q6 11 18 11q4 0 9 -2l192 -96l2 -2v0q2 -1 3 -3l2 -2v-1h1q1 -2 1 -3h1v-3v-1v0
q1 -2 1 -4l-1 -3v0v-1v-1q-1 -1 -1 -2v0q0 -1 -1 -1q0 -2 -3 -5l-160 -160q-6 -6 -14 -6q-9 0 -14 6q-6 6 -6 14t6 14l124 124q-92 -6 -171.5 -34t-138.5 -71t-100.5 -87t-75.5 -95q-40 -60 -69 -129.5t-37.5 -101t-10.5 -40.5q-3 -16 -19 -16z" />
    <glyph glyph-name="uniE617" unicode="&#xe617;" 
d="M511.5 832q-90.5 0 -173.5 -35.5t-143 -95.5t-95.5 -143t-35.5 -174t35.5 -173.5t95.5 -142.5t143 -95.5t173.5 -35.5t173.5 35.5t143 95.5t95.5 142.5t35.5 173.5t-35.5 174t-95.5 143t-143 95.5t-173.5 35.5zM735 360h-199v-199q0 -11 -7 -18t-17.5 -7t-17.5 7.5
t-7 17.5v199h-199q-11 0 -18 7t-7 17.5t7.5 17.5t17.5 7h199v199q0 10 7 17.5t17.5 7.5t17.5 -7.5t7 -17.5v-199h199q11 0 18 -7t7 -17.5t-7.5 -17.5t-17.5 -7z" />
    <glyph glyph-name="uniE618" unicode="&#xe618;" 
d="M109 383l282 -282l-44 -44l-282 281zM109 383zM304 103l607 607l44 -45l-607 -607zM304 103z" />
    <glyph glyph-name="uniE619" unicode="&#xe619;" 
d="M161 41q-23 0 -39 17.5t-16 42.5v506q0 25 16 42.5t39 17.5h193q23 0 38.5 -17.5t15.5 -42.5v-184l194 110q5 2 10 2q25 0 40 -14t15 -37v-61l195 111q5 3 10 3q25 0 40 -15t15 -38v-383q0 -25 -16 -42.5t-39 -17.5h-711zM149 101q0 -11 7 -16l3 -2h717l4 4q5 6 5 14v397
l-228 -130q-5 -3 -10.5 -3t-10.5 3q-11 6 -11 18v111l-228 -129q-5 -3 -10 -3q-6 0 -11 3q-10 6 -10 18v116h-217v-401zM158 624q-9 -5 -9 -17v-70h217v70q0 11 -7 16l-3 2h-195zM711 268q-9 0 -15 6t-6 15t6 15t15 6h97q9 0 15.5 -6t6.5 -15t-6.5 -15t-15.5 -6h-97z
M452 268q-9 0 -15 6t-6 15t6 15t15 6h97q9 0 15 -6t6 -15t-6 -15t-15 -6h-97z" />
    <glyph glyph-name="uniE61A" unicode="&#xe61a;" 
d="M176 11q-22 0 -37.5 15.5t-15.5 37.5v512q0 40 27 70l106 124q17 19 42 19h451q25 0 42 -18l115 -125q12 -12 19.5 -32t7.5 -37v-512q0 -22 -15.5 -37.5t-37.5 -15.5h-704v-1zM165 53h726v534h-222v-104h-282v104h-222v-534zM413 509h230v78h-51q-6 0 -9.5 4t-3.5 9
t3.5 9t9.5 4h40l-46 135h-115l-46 -135h87q5 0 9 -4t4 -9t-4 -9t-9 -4h-99v-78zM613 748l46 -135h221l-121 130l-2 1l-8 4h-136zM290 745q-2 -1 -2 -2l-1 -1l-111 -129h222l45 135h-151zM410 123v41h115h63q28 0 51 21t23 53q0 18 -7.5 32t-18 21.5t-21.5 12.5t-17.5 6.5
t-8.5 1.5h-144l17 -40q4 -10 7 -25q-84 46 -109 63q-12 9 -12 17q0 12 27 32q24 17 60 38q20 12 29 18q0 -5 -3 -13q-1 -7 -3.5 -15.5t-3.5 -14.5l-2 -5l-5 -14h141q54 0 84 -30q31 -33 31 -85q1 -52 -28 -82q-33 -33 -86 -33h-179z" />
    <glyph glyph-name="uniE61B" unicode="&#xe61b;" 
d="M809 355q0 19 -20 36.5t-51 28.5q-14 4 -6 28q33 34 33 82q0 34 -19.5 53t-48.5 19t-48.5 -19t-19.5 -53q0 -48 33 -82q4 -10 1.5 -16.5t-5 -8.5t-5.5 -3q-14 -5 -27 -13v18q0 19 -21 36.5t-53 28.5q-14 4 -6 28q33 34 33 81q0 35 -19.5 54t-48.5 19t-48.5 -19t-19.5 -54
q0 -47 33 -82q4 -9 1.5 -15.5t-5 -9t-5.5 -2.5q-30 -11 -50 -29t-20 -36v-18q-14 7 -29 13q-2 1 -4.5 3t-5.5 8.5t2 16.5q33 34 33 82q0 34 -19.5 53t-48.5 19t-49 -19t-20 -53q0 -48 34 -82q8 -24 -6 -28q-31 -11 -51 -28.5t-20 -36.5v-119v-1v-1q0 -48 49 -87t129 -58v36
q0 21 22 40t53 30q4 2 5 6q3 5 0 13q-34 36 -34 85q0 38 22 58.5t52 20.5t52 -20.5t22 -58.5q0 -49 -34 -84q-5 -17 3 -20q31 -10 54.5 -28.5t23.5 -41.5v-36q79 19 128 58t49 87v1v1v119z" />
    <glyph glyph-name="uniE61C" unicode="&#xe61c;" horiz-adv-x="1756" 
d="M878 831q-91 0 -174 -35.5t-143 -95.5t-95.5 -142.5t-35.5 -173.5t35.5 -173.5t95.5 -142.5t143 -95.5t174 -35.5t173.5 35.5t142.5 95.5t95.5 142.5t35.5 173.5t-35.5 173.5t-95.5 142.5t-142.5 95.5t-173.5 35.5zM877.5 -22q-110.5 0 -204 54.5t-148 148t-54.5 203.5
t54.5 204t148.5 148t204 54t203.5 -54.5t148 -148t54.5 -203.5t-54.5 -204t-148 -148t-204 -54zM1055 576q-47 0 -80 -35.5t-33 -85.5q0 -8 6 -14t14.5 -6t14.5 6t6 14q0 33 21 57t51 24t51 -24t21 -57q0 -8 6 -14t14.5 -6t14.5 6t6 14q0 50 -33 85.5t-80 35.5zM704 535
q30 0 51 -23.5t21 -56.5q0 -8 6 -14t14 -6t14 6t6 14q0 50 -33 85.5t-79.5 35.5t-79.5 -35.5t-33 -85.5q0 -8 6 -14t14.5 -6t14.5 6t6 14q0 33 21 56.5t51 23.5zM1095.5 287.5q-7.5 3.5 -15.5 0t-11 -11.5q-27 -64 -79 -103t-112.5 -39t-112.5 39t-78 103q-4 8 -11.5 11
t-15.5 0t-11 -10.5t0 -15.5q31 -76 93 -121.5t135.5 -45.5t135.5 45.5t93 121.5q4 8 0.5 15.5t-11 11z" />
    <glyph glyph-name="uniE61D" unicode="&#xe61d;" 
d="M512 503q-64 0 -110 -45.5t-46 -110t46 -110t110 -45.5t110 45.5t46 110t-46 110t-110 45.5zM252 698h-90v-39h90v39zM885 620h-169q-25 18 -43 55q-7 15 -27 24t-35 11l-16 1h-198h-6q-4 0 -15.5 -9t-22.5 -27q-23 -39 -44 -55h-170q-23 0 -39.5 -17t-16.5 -42v-453
q0 -25 16.5 -42t39.5 -17h746q23 0 39 17t16 42v453q0 25 -16 42t-39 17zM512 153q-81 0 -138 57t-57 137.5t57 137.5t138 57t137.5 -57t56.5 -137.5t-56.5 -137.5t-137.5 -57zM791 503q-13 0 -22.5 9.5t-9.5 23t9.5 23t22.5 9.5t22.5 -9.5t9.5 -23t-9.5 -23t-22.5 -9.5z
" />
    <glyph glyph-name="uniE61E" unicode="&#xe61e;" 
d="M832 358q-15 22 -35 39v1v214q0 19 -15.5 32t-38.5 13q-26 0 -44 -19q-19 -22 -19 -60q0 -7 5 -12t12 -5t12 5t5 12q0 25 10 37q8 8 19 8q8 0 14 -3.5t6 -7.5v-210l-245 -164l-247 165v209q0 4 6 7.5t15 3.5q11 0 18 -8q11 -12 11 -37q0 -7 5 -12t12 -5t12 5t5 12
q0 38 -19 60q-18 19 -44 19q-23 0 -39 -13t-16 -32v-214q0 -1 1 -2q-20 -17 -34 -38q-42 -63 -27 -137.5t78 -115.5q46 -31 101 -31q46 0 86.5 21.5t66.5 59.5q5 8 9 16q4 -8 9 -16q26 -38 66.5 -59.5t86.5 -21.5q55 0 101 31q63 41 78 115.5t-27 137.5zM481 174
q-21 -31 -54 -48.5t-71 -17.5q-45 0 -82 25q-52 34 -64 94.5t22 112.5q12 17 27 30l239 -159q-6 -20 -17 -37zM762 133q-37 -25 -82 -25q-38 0 -71 17.5t-54 48.5q-11 17 -17 37l239 159q15 -13 27 -30q34 -52 22 -112.5t-64 -94.5zM256 309q-4 -5 -8 -15t-4.5 -37.5
t12.5 -54.5q2 -4 7 -4h4q7 4 3 11q-11 24 -10.5 47t3.5 31.5t6 12.5q5 7 -2 11.5t-11 -2.5zM767 311.5q-7 -4.5 -2 -11.5q3 -4 6.5 -12.5t3.5 -31.5t-11 -47q-4 -7 4 -11h3q5 0 7 4q13 27 12.5 54.5t-4.5 37.5t-8 15q-4 7 -11 2.5z" />
    <glyph glyph-name="uniE61F" unicode="&#xe61f;" 
d="M512 831q-91 0 -173.5 -35.5t-142.5 -95.5t-95.5 -142.5t-35.5 -173.5t35.5 -173.5t95.5 -142.5t142.5 -95.5t173.5 -35.5t173.5 35.5t142.5 95.5t95.5 142.5t35.5 173.5t-35.5 173.5t-95.5 142.5t-142.5 95.5t-173.5 35.5zM512 -22q-110 0 -204 54t-148 148t-54 204
t54 204t148 148t204 54t204 -54t148 -148t54 -204t-54 -204t-148 -148t-204 -54zM725 408h-189v189q0 10 -7 17t-17 7t-17 -7t-7 -17v-189h-189q-10 0 -17 -7t-7 -17t7 -17t17 -7h189v-189q0 -10 7 -17t17 -7t17 7t7 17v189h189q10 0 17 7t7 17t-7 17t-17 7z" />
    <glyph glyph-name="uniE620" unicode="&#xe620;" horiz-adv-x="1449" 
d="M196 175l702 703l285 -285l-703 -702zM480 -51l645 644l-227 227l-56 -57l72 -72l-29 -29l-72 72l-55 -54l146 -146l-29 -29l-146 145l-54 -54l72 -72l-29 -29l-72 72l-55 -55l146 -145l-29 -29l-146 146l-54 -55l72 -72l-29 -29l-72 72l-55 -55l146 -145l-29 -29
l-146 145l-54 -54l72 -72l-29 -29l-72 72l-58 -58z" />
    <glyph glyph-name="uniE621" unicode="&#xe621;" 
d="M891 677h-748q-28 0 -46 -14.5t-18 -39.5v-538q0 -54 54 -54h758q54 0 54 54v538q0 54 -54 54zM424 564q30 0 51 -21.5t21 -51.5t-21 -51.5t-51 -21.5t-51 21.5t-21 51.5t21 51.5t51 21.5zM801 127h-578q-13 0 -17 8t3 19l108 163q8 11 19 11.5t19 -10.5l54 -67
q9 -10 20 -9.5t18 11.5l142 204q8 11 18.5 10.5t17.5 -11.5l191 -301q7 -12 2.5 -20t-17.5 -8z" />
    <glyph glyph-name="uniE622" unicode="&#xe622;" 
d="M512 -64q-185 0 -316.5 131.5t-131.5 316.5t131.5 316.5t316.5 131.5t316.5 -131.5t131.5 -316.5t-131.5 -316.5t-316.5 -131.5zM512 789q-110 0 -203.5 -54t-147.5 -147.5t-54 -203.5t54 -203.5t147.5 -147.5t203.5 -54t203.5 54t147.5 147.5t54 203.5t-54 203.5
t-147.5 147.5t-203.5 54zM480 239q-1 12 -1 18q0 35 10 61q8 19 24 39q12 14 43 41.5t40.5 44t9.5 35.5q0 35 -27.5 61.5t-66.5 26.5t-64.5 -24t-33.5 -75l-62 8q9 68 50 104.5t109 36.5q71 0 114 -39t43 -95q0 -32 -15 -59t-59 -65q-30 -27 -38 -39q-9 -12 -14 -28
q-4 -17 -5 -52h-57zM476 119v68h68v-68h-68zM476 119z" />
    <glyph glyph-name="uniE623" unicode="&#xe623;" 
d="M935 758q-88 91 -212 91q-117 0 -204 -81l-7 -7l-7 7q-87 81 -204 81q-124 0 -212 -91q-89 -91 -89 -220t89 -220l361 -372q25 -27 62 -27t62 27q357 368 361 372q89 91 89 220t-89 220zM903 350l-360 -372q-13 -13 -31 -13t-31 13l-360 372q-76 78 -76 188t76 188
q75 77 180 77q100 0 174 -69l37 -35l37 35q74 69 174 69q105 0 180 -77q76 -78 76 -188t-76 -188zM270 710h-2q-53 -2 -90.5 -40t-37.5 -91q0 -9 6.5 -15t15 -6t15 6t6.5 15q0 36 25.5 62t61.5 26q9 0 15.5 6t6.5 15t-6.5 15.5t-15.5 6.5zM270 710z" />
    <glyph glyph-name="uniE624" unicode="&#xe624;" 
d="M512 -128q-139 0 -257 68.5t-186.5 186.5t-68.5 257t68.5 257t186.5 186.5t257 68.5t257 -68.5t186.5 -186.5t68.5 -257t-68.5 -257t-186.5 -186.5t-257 -68.5zM512 828q-90 0 -172.5 -35.5t-141.5 -94.5t-94.5 -141.5t-35.5 -172.5t35.5 -172.5t94.5 -141.5t141.5 -94.5
t172.5 -35.5t172.5 35.5t141.5 94.5t94.5 141.5t35.5 172.5t-35.5 172.5t-94.5 141.5t-141.5 94.5t-172.5 35.5zM512 77q-28 0 -48 20t-20 48t20 48t48 20t48 -20t20 -48t-20 -48t-48 -20zM512 282q-14 0 -24 20t-10 48l-34 307q0 28 20 48t48 20t48 -20t20 -48l-34 -307
q0 -28 -10 -48t-24 -20z" />
    <glyph glyph-name="uniE625" unicode="&#xe625;" 
d="M881 401l-61 -37q6 -31 6 -57.5t-5 -58.5l62 -35q19 -11 25 -32t-5 -40l-52 -93q-10 -19 -31 -25t-40 5l-63 36q-46 -41 -98 -60v-45q1 -22 -14.5 -38t-37.5 -16l-105 -1q-22 0 -37.5 15.5t-15.5 37.5v45q-53 18 -100 57l-62 -36q-18 -12 -39.5 -6.5t-32.5 24.5l-53 92
q-11 19 -5.5 40t23.5 33l61 36q-6 31 -6 58t5 58l-62 35q-19 11 -24.5 32.5t4.5 40.5l52 92q11 20 32 25.5t40 -4.5l62 -36q46 40 98 60v45q0 22 15 37.5t37 15.5l105 1q22 1 37.5 -14.5t15.5 -37.5l1 -45q53 -19 99 -58l62 37q19 11 40 5.5t32 -24.5l54 -91
q11 -19 5.5 -40.5t-24.5 -32.5zM841 470l-27 45q-5 10 -15.5 12.5t-20.5 -2.5l-72 -44q-60 66 -145 83l-1 59q0 11 -8 18.5t-19 7.5l-52 -1q-11 0 -18.5 -7.5t-7.5 -18.5v-59q-85 -18 -143 -86l-73 42q-10 6 -20.5 3t-15.5 -13l-26 -46q-5 -10 -2 -20.5t12 -15.5l74 -42
q-14 -43 -13.5 -84.5t15.5 -83.5l-73 -44q-10 -5 -12.5 -16t2.5 -20l27 -46q6 -9 16.5 -12t19.5 3l73 43q59 -66 145 -83v-58q0 -11 8 -19t19 -7h52q11 0 19 8t8 19l-1 58q85 19 143 86l74 -42q9 -5 19.5 -2t15.5 12l26 47q6 9 3 19.5t-13 16.5l-74 42q14 42 13.5 84
t-14.5 84l73 43q9 6 11.5 16.5t-2.5 20.5zM512 170.5q-55 -0.5 -94.5 38t-40 93.5t38 94.5t93.5 40t94.5 -38t40 -93.5t-38 -94.5t-93.5 -40zM510 383q-33 0 -56 -23.5t-23 -57t23.5 -56.5t57 -22.5t56.5 24t22.5 56.5t-24 56t-56.5 23z" />
  </font>
</defs>
</svg>
